<svg xmlns="http://www.w3.org/2000/svg" width="343.12" height="35" viewBox="0 0 343.12 35"><rect class="svg__rect" x="0" y="0" width="145.31" height="35" fill="#31C4F3"/><rect class="svg__rect" x="143.31" y="0" width="199.81" height="35" fill="#EA4560"/><path class="svg__text" d="M15.70 22L14.22 22L14.22 13.47L19.64 13.47L19.64 14.66L15.70 14.66L15.70 17.20L19.13 17.20L19.13 18.38L15.70 18.38L15.70 22ZM29.15 22L23.80 22L23.80 13.47L25.28 13.47L25.28 20.82L29.15 20.82L29.15 22ZM34.06 22L32.52 22L35.74 13.47L37.07 13.47L40.30 22L38.75 22L38.05 20.01L34.75 20.01L34.06 22ZM36.40 15.28L35.16 18.82L37.64 18.82L36.40 15.28ZM43.82 19.42L43.82 19.42L45.30 19.42Q45.30 20.15 45.78 20.55Q46.26 20.95 47.16 20.95L47.16 20.95Q47.93 20.95 48.32 20.63Q48.71 20.32 48.71 19.80L48.71 19.80Q48.71 19.24 48.32 18.94Q47.92 18.63 46.89 18.32Q45.86 18.01 45.25 17.63L45.25 17.63Q44.08 16.90 44.08 15.72L44.08 15.72Q44.08 14.69 44.92 14.02Q45.76 13.35 47.11 13.35L47.11 13.35Q48.00 13.35 48.69 13.68Q49.39 14.01 49.79 14.61Q50.19 15.22 50.19 15.96L50.19 15.96L48.71 15.96Q48.71 15.29 48.29 14.91Q47.87 14.54 47.09 14.54L47.09 14.54Q46.37 14.54 45.97 14.85Q45.56 15.16 45.56 15.71L45.56 15.71Q45.56 16.18 46.00 16.50Q46.43 16.81 47.43 17.10Q48.42 17.40 49.03 17.78Q49.63 18.16 49.91 18.65Q50.19 19.13 50.19 19.79L50.19 19.79Q50.19 20.86 49.38 21.49Q48.56 22.12 47.16 22.12L47.16 22.12Q46.23 22.12 45.46 21.77Q44.68 21.43 44.25 20.83Q43.82 20.22 43.82 19.42ZM55.97 22L54.48 22L54.48 13.47L55.97 13.47L55.97 17.47L56.79 16.46L59.28 13.47L61.07 13.47L57.90 17.25L61.26 22L59.50 22L56.93 18.31L55.97 19.34L55.97 22ZM66.52 22L65.04 22L65.04 13.47L68.30 13.47Q69.73 13.47 70.57 14.21Q71.41 14.96 71.41 16.18L71.41 16.18Q71.41 17.44 70.59 18.13Q69.76 18.83 68.28 18.83L68.28 18.83L66.52 18.83L66.52 22ZM66.52 14.66L66.52 17.64L68.30 17.64Q69.09 17.64 69.51 17.27Q69.92 16.90 69.92 16.19L69.92 16.19Q69.92 15.50 69.50 15.09Q69.08 14.68 68.34 14.66L68.34 14.66L66.52 14.66ZM77.18 22L75.69 22L75.69 13.47L77.18 13.47L77.18 17.02L80.99 17.02L80.99 13.47L82.47 13.47L82.47 22L80.99 22L80.99 18.21L77.18 18.21L77.18 22ZM88.77 22L87.30 22L87.30 13.47L88.77 13.47L88.77 22ZM93.15 19.42L93.15 19.42L94.63 19.42Q94.63 20.15 95.11 20.55Q95.59 20.95 96.49 20.95L96.49 20.95Q97.26 20.95 97.65 20.63Q98.04 20.32 98.04 19.80L98.04 19.80Q98.04 19.24 97.65 18.94Q97.25 18.63 96.22 18.32Q95.19 18.01 94.58 17.63L94.58 17.63Q93.41 16.90 93.41 15.72L93.41 15.72Q93.41 14.69 94.25 14.02Q95.09 13.35 96.44 13.35L96.44 13.35Q97.33 13.35 98.02 13.68Q98.72 14.01 99.12 14.61Q99.52 15.22 99.52 15.96L99.52 15.96L98.04 15.96Q98.04 15.29 97.62 14.91Q97.20 14.54 96.42 14.54L96.42 14.54Q95.70 14.54 95.30 14.85Q94.89 15.16 94.89 15.71L94.89 15.71Q94.89 16.18 95.33 16.50Q95.76 16.81 96.76 17.10Q97.75 17.40 98.36 17.78Q98.96 18.16 99.24 18.65Q99.52 19.13 99.52 19.79L99.52 19.79Q99.52 20.86 98.71 21.49Q97.89 22.12 96.49 22.12L96.49 22.12Q95.56 22.12 94.79 21.77Q94.01 21.43 93.58 20.83Q93.15 20.22 93.15 19.42ZM105.30 22L103.81 22L103.81 13.47L105.30 13.47L105.30 17.02L109.11 17.02L109.11 13.47L110.59 13.47L110.59 22L109.11 22L109.11 18.21L105.30 18.21L105.30 22ZM120.90 22L115.33 22L115.33 13.47L120.86 13.47L120.86 14.66L116.81 14.66L116.81 17.02L120.31 17.02L120.31 18.19L116.81 18.19L116.81 20.82L120.90 20.82L120.90 22ZM126.58 22L125.10 22L125.10 13.47L128.10 13.47Q129.58 13.47 130.38 14.13Q131.18 14.79 131.18 16.05L131.18 16.05Q131.18 16.90 130.77 17.48Q130.36 18.06 129.62 18.37L129.62 18.37L131.53 21.92L131.53 22L129.95 22L128.23 18.71L126.58 18.71L126.58 22ZM126.58 14.66L126.58 17.52L128.11 17.52Q128.86 17.52 129.28 17.15Q129.70 16.77 129.70 16.11L129.70 16.11Q129.70 15.43 129.31 15.05Q128.92 14.68 128.15 14.66L128.15 14.66L126.58 14.66Z" fill="#FFFFFF"/><path class="svg__text" d="M159.88 22L157.50 22L157.50 13.60L161.34 13.60Q162.48 13.60 163.32 13.98Q164.16 14.35 164.62 15.06Q165.07 15.76 165.07 16.71L165.07 16.71Q165.07 17.66 164.62 18.35Q164.16 19.05 163.32 19.42Q162.48 19.80 161.34 19.80L161.34 19.80L159.88 19.80L159.88 22ZM159.88 15.47L159.88 17.93L161.20 17.93Q161.93 17.93 162.30 17.61Q162.67 17.29 162.67 16.71L162.67 16.71Q162.67 16.12 162.30 15.80Q161.93 15.47 161.20 15.47L161.20 15.47L159.88 15.47ZM172.20 22L169.83 22L169.83 13.60L172.20 13.60L172.20 16.76L175.45 16.76L175.45 13.60L177.82 13.60L177.82 22L175.45 22L175.45 18.72L172.20 18.72L172.20 22ZM185.36 22L182.98 22L182.98 13.60L185.36 13.60L185.36 22ZM189.95 21.24L189.95 21.24L190.73 19.49Q191.29 19.86 192.03 20.09Q192.78 20.32 193.50 20.32L193.50 20.32Q194.86 20.32 194.87 19.64L194.87 19.64Q194.87 19.28 194.48 19.11Q194.09 18.93 193.22 18.74L193.22 18.74Q192.27 18.53 191.64 18.30Q191.00 18.06 190.55 17.55Q190.09 17.03 190.09 16.16L190.09 16.16Q190.09 15.39 190.51 14.77Q190.93 14.15 191.77 13.79Q192.60 13.43 193.81 13.43L193.81 13.43Q194.63 13.43 195.44 13.62Q196.25 13.80 196.86 14.17L196.86 14.17L196.13 15.93Q194.93 15.28 193.80 15.28L193.80 15.28Q193.09 15.28 192.77 15.49Q192.44 15.70 192.44 16.04L192.44 16.04Q192.44 16.37 192.83 16.54Q193.21 16.71 194.06 16.89L194.06 16.89Q195.02 17.10 195.65 17.33Q196.28 17.56 196.74 18.07Q197.21 18.58 197.21 19.46L197.21 19.46Q197.21 20.21 196.79 20.83Q196.37 21.44 195.53 21.80Q194.69 22.17 193.49 22.17L193.49 22.17Q192.47 22.17 191.51 21.92Q190.54 21.67 189.95 21.24ZM204.16 22L201.78 22L201.78 13.60L204.16 13.60L204.16 16.76L207.40 16.76L207.40 13.60L209.78 13.60L209.78 22L207.40 22L207.40 18.72L204.16 18.72L204.16 22ZM217.32 22L214.94 22L214.94 13.60L217.32 13.60L217.32 22ZM224.82 22L222.49 22L222.49 13.60L224.45 13.60L228.16 18.07L228.16 13.60L230.48 13.60L230.48 22L228.53 22L224.82 17.52L224.82 22ZM235.22 17.80L235.22 17.80Q235.22 16.54 235.81 15.54Q236.41 14.55 237.48 13.99Q238.55 13.43 239.89 13.43L239.89 13.43Q241.07 13.43 242.01 13.83Q242.95 14.22 243.57 14.97L243.57 14.97L242.05 16.33Q241.21 15.40 240.03 15.40L240.03 15.40Q240.02 15.40 240.02 15.40L240.02 15.40Q238.94 15.40 238.28 16.06Q237.61 16.71 237.61 17.80L237.61 17.80Q237.61 18.50 237.91 19.04Q238.22 19.59 238.76 19.89Q239.29 20.20 239.99 20.20L239.99 20.20Q240.68 20.20 241.28 19.93L241.28 19.93L241.28 17.62L243.37 17.62L243.37 21.10Q242.65 21.61 241.72 21.89Q240.78 22.17 239.85 22.17L239.85 22.17Q238.53 22.17 237.47 21.61Q236.41 21.05 235.81 20.05Q235.22 19.06 235.22 17.80ZM257.13 15.48L254.55 15.48L254.55 13.60L262.07 13.60L262.07 15.48L259.50 15.48L259.50 22L257.13 22L257.13 15.48ZM266.01 17.80L266.01 17.80Q266.01 16.55 266.62 15.55Q267.22 14.56 268.28 14.00Q269.35 13.43 270.68 13.43L270.68 13.43Q272.01 13.43 273.07 14.00Q274.13 14.56 274.74 15.55Q275.35 16.55 275.35 17.80L275.35 17.80Q275.35 19.05 274.74 20.04Q274.13 21.04 273.07 21.60Q272.01 22.17 270.68 22.17L270.68 22.17Q269.35 22.17 268.28 21.60Q267.22 21.04 266.62 20.04Q266.01 19.05 266.01 17.80ZM268.41 17.80L268.41 17.80Q268.41 18.51 268.71 19.05Q269.01 19.60 269.53 19.90Q270.04 20.20 270.68 20.20L270.68 20.20Q271.32 20.20 271.83 19.90Q272.35 19.60 272.65 19.05Q272.95 18.51 272.95 17.80L272.95 17.80Q272.95 17.09 272.65 16.54Q272.35 16 271.83 15.70Q271.32 15.40 270.68 15.40L270.68 15.40Q270.04 15.40 269.53 15.70Q269.01 16 268.71 16.54Q268.41 17.09 268.41 17.80ZM279.65 17.80L279.65 17.80Q279.65 16.55 280.25 15.55Q280.86 14.56 281.92 14.00Q282.98 13.43 284.31 13.43L284.31 13.43Q285.64 13.43 286.71 14.00Q287.77 14.56 288.38 15.55Q288.98 16.55 288.98 17.80L288.98 17.80Q288.98 19.05 288.38 20.04Q287.77 21.04 286.71 21.60Q285.65 22.17 284.31 22.17L284.31 22.17Q282.98 22.17 281.92 21.60Q280.86 21.04 280.25 20.04Q279.65 19.05 279.65 17.80ZM282.04 17.80L282.04 17.80Q282.04 18.51 282.35 19.05Q282.65 19.60 283.16 19.90Q283.68 20.20 284.31 20.20L284.31 20.20Q284.95 20.20 285.47 19.90Q285.98 19.60 286.28 19.05Q286.58 18.51 286.58 17.80L286.58 17.80Q286.58 17.09 286.28 16.54Q285.98 16 285.47 15.70Q284.95 15.40 284.31 15.40L284.31 15.40Q283.67 15.40 283.16 15.70Q282.65 16 282.35 16.54Q282.04 17.09 282.04 17.80ZM300.10 22L293.71 22L293.71 13.60L296.09 13.60L296.09 20.11L300.10 20.11L300.10 22ZM306.87 22L304.52 22L304.52 13.60L306.87 13.60L306.87 17.09L310.12 13.60L312.74 13.60L309.31 17.32L312.92 22L310.16 22L307.76 18.95L306.87 19.90L306.87 22ZM319.40 22L317.03 22L317.03 13.60L319.40 13.60L319.40 22ZM326.37 15.48L323.79 15.48L323.79 13.60L331.31 13.60L331.31 15.48L328.74 15.48L328.74 22L326.37 22L326.37 15.48Z" fill="#FFFFFF" x="156.31"/></svg>