<svg xmlns="http://www.w3.org/2000/svg" width="201.38" height="35" viewBox="0 0 201.38 35"><rect class="svg__rect" x="0" y="0" width="145.31" height="35" fill="#31C4F3"/><rect class="svg__rect" x="143.31" y="0" width="58.06999999999999" height="35" fill="#EA4560"/><path class="svg__text" d="M15.70 22L14.22 22L14.22 13.47L19.64 13.47L19.64 14.66L15.70 14.66L15.70 17.20L19.13 17.20L19.13 18.38L15.70 18.38L15.70 22ZM29.15 22L23.80 22L23.80 13.47L25.28 13.47L25.28 20.82L29.15 20.82L29.15 22ZM34.06 22L32.52 22L35.74 13.47L37.07 13.47L40.30 22L38.75 22L38.05 20.01L34.75 20.01L34.06 22ZM36.40 15.28L35.16 18.82L37.64 18.82L36.40 15.28ZM43.82 19.42L43.82 19.42L45.30 19.42Q45.30 20.15 45.78 20.55Q46.26 20.95 47.16 20.95L47.16 20.95Q47.93 20.95 48.32 20.63Q48.71 20.32 48.71 19.80L48.71 19.80Q48.71 19.24 48.32 18.94Q47.92 18.63 46.89 18.32Q45.86 18.01 45.25 17.63L45.25 17.63Q44.08 16.90 44.08 15.72L44.08 15.72Q44.08 14.69 44.92 14.02Q45.76 13.35 47.11 13.35L47.11 13.35Q48.00 13.35 48.69 13.68Q49.39 14.01 49.79 14.61Q50.19 15.22 50.19 15.96L50.19 15.96L48.71 15.96Q48.71 15.29 48.29 14.91Q47.87 14.54 47.09 14.54L47.09 14.54Q46.37 14.54 45.97 14.85Q45.56 15.16 45.56 15.71L45.56 15.71Q45.56 16.18 46.00 16.50Q46.43 16.81 47.43 17.10Q48.42 17.40 49.03 17.78Q49.63 18.16 49.91 18.65Q50.19 19.13 50.19 19.79L50.19 19.79Q50.19 20.86 49.38 21.49Q48.56 22.12 47.16 22.12L47.16 22.12Q46.23 22.12 45.46 21.77Q44.68 21.43 44.25 20.83Q43.82 20.22 43.82 19.42ZM55.97 22L54.48 22L54.48 13.47L55.97 13.47L55.97 17.47L56.79 16.46L59.28 13.47L61.07 13.47L57.90 17.25L61.26 22L59.50 22L56.93 18.31L55.97 19.34L55.97 22ZM66.52 22L65.04 22L65.04 13.47L68.30 13.47Q69.73 13.47 70.57 14.21Q71.41 14.96 71.41 16.18L71.41 16.18Q71.41 17.44 70.59 18.13Q69.76 18.83 68.28 18.83L68.28 18.83L66.52 18.83L66.52 22ZM66.52 14.66L66.52 17.64L68.30 17.64Q69.09 17.64 69.51 17.27Q69.92 16.90 69.92 16.19L69.92 16.19Q69.92 15.50 69.50 15.09Q69.08 14.68 68.34 14.66L68.34 14.66L66.52 14.66ZM77.18 22L75.69 22L75.69 13.47L77.18 13.47L77.18 17.02L80.99 17.02L80.99 13.47L82.47 13.47L82.47 22L80.99 22L80.99 18.21L77.18 18.21L77.18 22ZM88.77 22L87.30 22L87.30 13.47L88.77 13.47L88.77 22ZM93.15 19.42L93.15 19.42L94.63 19.42Q94.63 20.15 95.11 20.55Q95.59 20.95 96.49 20.95L96.49 20.95Q97.26 20.95 97.65 20.63Q98.04 20.32 98.04 19.80L98.04 19.80Q98.04 19.24 97.65 18.94Q97.25 18.63 96.22 18.32Q95.19 18.01 94.58 17.63L94.58 17.63Q93.41 16.90 93.41 15.72L93.41 15.72Q93.41 14.69 94.25 14.02Q95.09 13.35 96.44 13.35L96.44 13.35Q97.33 13.35 98.02 13.68Q98.72 14.01 99.12 14.61Q99.52 15.22 99.52 15.96L99.52 15.96L98.04 15.96Q98.04 15.29 97.62 14.91Q97.20 14.54 96.42 14.54L96.42 14.54Q95.70 14.54 95.30 14.85Q94.89 15.16 94.89 15.71L94.89 15.71Q94.89 16.18 95.33 16.50Q95.76 16.81 96.76 17.10Q97.75 17.40 98.36 17.78Q98.96 18.16 99.24 18.65Q99.52 19.13 99.52 19.79L99.52 19.79Q99.52 20.86 98.71 21.49Q97.89 22.12 96.49 22.12L96.49 22.12Q95.56 22.12 94.79 21.77Q94.01 21.43 93.58 20.83Q93.15 20.22 93.15 19.42ZM105.30 22L103.81 22L103.81 13.47L105.30 13.47L105.30 17.02L109.11 17.02L109.11 13.47L110.59 13.47L110.59 22L109.11 22L109.11 18.21L105.30 18.21L105.30 22ZM120.90 22L115.33 22L115.33 13.47L120.86 13.47L120.86 14.66L116.81 14.66L116.81 17.02L120.31 17.02L120.31 18.19L116.81 18.19L116.81 20.82L120.90 20.82L120.90 22ZM126.58 22L125.10 22L125.10 13.47L128.10 13.47Q129.58 13.47 130.38 14.13Q131.18 14.79 131.18 16.05L131.18 16.05Q131.18 16.90 130.77 17.48Q130.36 18.06 129.62 18.37L129.62 18.37L131.53 21.92L131.53 22L129.95 22L128.23 18.71L126.58 18.71L126.58 22ZM126.58 14.66L126.58 17.52L128.11 17.52Q128.86 17.52 129.28 17.15Q129.70 16.77 129.70 16.11L129.70 16.11Q129.70 15.43 129.31 15.05Q128.92 14.68 128.15 14.66L128.15 14.66L126.58 14.66Z" fill="#FFFFFF"/><path class="svg__text" d="M160.08 22L156.49 13.60L159.06 13.60L161.34 19.07L163.67 13.60L166.02 13.60L162.42 22L160.08 22ZM170.97 15.44L169.40 15.44L169.40 13.60L173.34 13.60L173.34 22L170.97 22L170.97 15.44ZM178.00 20.75L178.00 20.75Q178.00 20.15 178.39 19.78Q178.78 19.41 179.37 19.41L179.37 19.41Q179.97 19.41 180.35 19.78Q180.74 20.15 180.74 20.75L180.74 20.75Q180.74 21.34 180.35 21.72Q179.96 22.11 179.37 22.11L179.37 22.11Q178.79 22.11 178.40 21.72Q178.00 21.34 178.00 20.75ZM186.19 15.44L184.63 15.44L184.63 13.60L188.56 13.60L188.56 22L186.19 22L186.19 15.44Z" fill="#FFFFFF" x="156.31"/></svg>